{"title":"Hole In One 2010 DvDRip XviD Ac3 Feel-Free","uid":5839525,"size":1297307893,"categoryP":"video","categoryS":"movies","magnet":"?xt=urn:btih:961c9fdbb0a6795e390ec305bc02326867d6a37d&amp;dn=Hole+In+One+2010+DvDRip+XviD+Ac3+Feel-Free&amp;tr=udp%3A%2F%2Ftracker.openbittorrent.com%3A80&amp;tr=udp%3A%2F%2Fopen.demonii.com%3A1337&amp;tr=udp%3A%2F%2Ftracker.coppersurfer.tk%3A6969&amp;tr=udp%3A%2F%2Fexodus.desync.com%3A6969","seeders":0,"leechers":0,"uploader":"neon","files":-1,"time":1284882066,"description":"Hole In One 2010 DvDRip XviD Ac3 Feel-Free\n\nEric, a highly-gifted golfer but radically-undisciplined college undergrad, finds his world drastically altered after losing a golf bet to a pair of sadistic plastic surgeons. Eric's bad-boy attitude lifestyle comes to a screeching halt as he loses his money, his girlfriend, his dignity and his golf swing. Eric and his best friend Tyler decide to take on the doctors, in a final golf match of &quot;Best-Ball&quot; to get his life back and become the man he should have been all along.\n\nGenre:Comedy\nLanguage:English\n &lt;a href=&quot; http://www.imdb.com/title/tt1263800/&quot; rel=&quot;nofollow&quot; target=&quot;_NEW&quot;&gt; http://www.imdb.com/title/tt1263800/&lt;/a&gt;\nSource:Speeds-RG asttas Ipteline.Thanks\n &lt;a href=&quot;\nhttp://www.starshare.ro/bitbucket/Hole%20In%20One%202010%20DvDRip%20XviD%20Ac3%20Feel-Free.avi_thumbs_%5B2010.09.19_02.10.57%5D.jpg&quot; rel=&quot;nofollow&quot; target=&quot;_NEW&quot;&gt;\nhttp://www.starshare.ro/bitbucket/Hole%20In%20One%202010%20DvDRip%20XviD%20Ac3%20Feel-Free.avi_thumbs_%5B2010.09.19_02.10.57%5D.jpg&lt;/a&gt;\n\nGeneral\nComplete name : Hole In One 2010 DvDRip XviD Ac3 Feel-Free\nFormat : AVI\nFormat/Info : Audio Video Interleave\nFile size : 1.21 GiB\nDuration : 1h 35mn\nOverall bit rate : 1 802 Kbps\nVideo #0\nMuxing mode : Packed bitstream\nCodec ID : XVID\nCodec ID/Hint : XviD\nDuration : 1h 35mn\nBit rate : 1 408 Kbps\nWidth : 720 pixels\nHeight : 304 pixels\nDisplay aspect ratio : 2.35:1\nFrame rate : 25.000 fps\nResolution : 24 bits\nColorimetry : 4:2:0\nScan type : Progressive\nBits/(Pixel*Frame) : 0.257\nStream size : 966 MiB (78%)\nWriting library : XviD 1.2.1 (UTC 2008-12-04)\nAudio #1\nID : 1\nFormat : AC-3\nFormat/Info : Audio Coding 3\nCodec ID : 2000\nDuration : 1h 35mn\nBit rate mode : Constant\nBit rate : 384 Kbps\nChannel(s) : 6 channels\nChannel positions : Front: L C R, Surround: L R, LFE\nSampling rate : 48.0 KHz\nStream size : 263 MiB (21%)\nAlignment : Split accross interleaves\nInterleave, duration : 40 ms (1.00 video frame)\nInterleave, preload duration : 500 ms\n","torrent":{"xt":"urn:btih:961c9fdbb0a6795e390ec305bc02326867d6a37d","amp;dn":"Hole+In+One+2010+DvDRip+XviD+Ac3+Feel-Free","amp;tr":["udp%3A%2F%2Ftracker.openbittorrent.com%3A80","udp%3A%2F%2Fopen.demonii.com%3A1337","udp%3A%2F%2Ftracker.coppersurfer.tk%3A6969","udp%3A%2F%2Fexodus.desync.com%3A6969"],"infoHash":"961c9fdbb0a6795e390ec305bc02326867d6a37d","infoHashBuffer":{"type":"Buffer","data":[150,28,159,219,176,166,121,94,57,14,195,5,188,2,50,104,103,214,163,125]},"announce":[],"urlList":[]}}